<mxfile host="Electron" modified="2023-10-30T14:53:17.522Z" agent="Mozilla/5.0 (Windows NT 10.0; Win64; x64) AppleWebKit/537.36 (KHTML, like Gecko) draw.io/22.0.3 Chrome/114.0.5735.289 Electron/25.8.4 Safari/537.36" etag="LyISz5r1UXmDbc8aO8bX" version="22.0.3" type="device">
  <diagram name="Page-1" id="TLj43MyadQ49GWr3xfYL">
    <mxGraphModel dx="864" dy="1616" grid="1" gridSize="10" guides="1" tooltips="1" connect="1" arrows="1" fold="1" page="1" pageScale="1" pageWidth="850" pageHeight="1100" math="0" shadow="0">
      <root>
        <mxCell id="0" />
        <mxCell id="1" parent="0" />
        <mxCell id="mHFgFETIg7N2WqQJ-qOk-27" value="Available" style="strokeColor=inherit;fillColor=inherit;gradientColor=inherit;shape=rect;html=1;rounded=1;whiteSpace=wrap;align=center;" parent="1" vertex="1">
          <mxGeometry x="500" y="-80" width="100" height="40" as="geometry" />
        </mxCell>
        <mxCell id="mHFgFETIg7N2WqQJ-qOk-34" value="" style="strokeColor=inherit;fillColor=inherit;gradientColor=inherit;edgeStyle=none;html=1;endArrow=open;rounded=0;" parent="1" edge="1">
          <mxGeometry relative="1" as="geometry">
            <mxPoint x="549.5" y="-40" as="sourcePoint" />
            <mxPoint x="549.5" y="33" as="targetPoint" />
            <Array as="points" />
          </mxGeometry>
        </mxCell>
        <mxCell id="mHFgFETIg7N2WqQJ-qOk-42" value="book" style="edgeLabel;html=1;align=center;verticalAlign=middle;resizable=0;points=[];" parent="mHFgFETIg7N2WqQJ-qOk-34" vertex="1" connectable="0">
          <mxGeometry x="0.0137" relative="1" as="geometry">
            <mxPoint as="offset" />
          </mxGeometry>
        </mxCell>
        <mxCell id="mHFgFETIg7N2WqQJ-qOk-35" value="" style="strokeColor=inherit;fillColor=inherit;gradientColor=inherit;edgeStyle=none;html=1;endArrow=open;rounded=0;" parent="1" edge="1">
          <mxGeometry relative="1" as="geometry">
            <mxPoint x="552.5" y="74" as="sourcePoint" />
            <mxPoint x="552.5" y="147" as="targetPoint" />
            <Array as="points" />
          </mxGeometry>
        </mxCell>
        <mxCell id="mHFgFETIg7N2WqQJ-qOk-43" value="buy" style="edgeLabel;html=1;align=center;verticalAlign=middle;resizable=0;points=[];" parent="mHFgFETIg7N2WqQJ-qOk-35" vertex="1" connectable="0">
          <mxGeometry x="-0.0411" y="1" relative="1" as="geometry">
            <mxPoint as="offset" />
          </mxGeometry>
        </mxCell>
        <mxCell id="mHFgFETIg7N2WqQJ-qOk-36" value="" style="shape=ellipse;html=1;fillColor=strokeColor;verticalLabelPosition=bottom;labelBackgroundColor=#ffffff;verticalAlign=top;" parent="1" vertex="1">
          <mxGeometry x="540" y="-140" width="20" height="20" as="geometry" />
        </mxCell>
        <mxCell id="mHFgFETIg7N2WqQJ-qOk-37" value="" style="strokeColor=inherit;fillColor=inherit;gradientColor=inherit;edgeStyle=none;html=1;endArrow=open;endSize=12;rounded=0;" parent="1" edge="1">
          <mxGeometry relative="1" as="geometry">
            <mxPoint x="550" y="-118" as="sourcePoint" />
            <mxPoint x="550" y="-78" as="targetPoint" />
          </mxGeometry>
        </mxCell>
        <mxCell id="mHFgFETIg7N2WqQJ-qOk-38" style="edgeStyle=orthogonalEdgeStyle;rounded=0;orthogonalLoop=1;jettySize=auto;html=1;exitX=0.5;exitY=0;exitDx=0;exitDy=0;entryX=0.5;entryY=1;entryDx=0;entryDy=0;" parent="1" edge="1">
          <mxGeometry relative="1" as="geometry">
            <mxPoint x="550" y="-137" as="sourcePoint" />
            <mxPoint x="550" y="-117" as="targetPoint" />
          </mxGeometry>
        </mxCell>
        <mxCell id="mHFgFETIg7N2WqQJ-qOk-39" value="Booked" style="strokeColor=inherit;fillColor=inherit;gradientColor=inherit;shape=rect;html=1;rounded=1;whiteSpace=wrap;align=center;" parent="1" vertex="1">
          <mxGeometry x="503" y="34" width="100" height="40" as="geometry" />
        </mxCell>
        <mxCell id="mHFgFETIg7N2WqQJ-qOk-40" value="Sold" style="strokeColor=inherit;fillColor=inherit;gradientColor=inherit;shape=rect;html=1;rounded=1;whiteSpace=wrap;align=center;" parent="1" vertex="1">
          <mxGeometry x="504" y="148" width="100" height="40" as="geometry" />
        </mxCell>
        <mxCell id="mHFgFETIg7N2WqQJ-qOk-44" value="" style="strokeColor=inherit;fillColor=inherit;gradientColor=inherit;edgeStyle=orthogonalEdgeStyle;html=1;endArrow=open;rounded=0;exitX=1;exitY=0.25;exitDx=0;exitDy=0;entryX=1;entryY=0.75;entryDx=0;entryDy=0;movable=0;resizable=0;rotatable=0;deletable=0;editable=0;locked=1;connectable=0;" parent="1" source="mHFgFETIg7N2WqQJ-qOk-39" target="mHFgFETIg7N2WqQJ-qOk-27" edge="1">
          <mxGeometry relative="1" as="geometry">
            <mxPoint x="639.5" y="50" as="sourcePoint" />
            <mxPoint x="640" y="-60" as="targetPoint" />
          </mxGeometry>
        </mxCell>
        <mxCell id="mHFgFETIg7N2WqQJ-qOk-46" value="timed out" style="edgeLabel;html=1;align=center;verticalAlign=middle;resizable=0;points=[];" parent="mHFgFETIg7N2WqQJ-qOk-44" vertex="1" connectable="0">
          <mxGeometry x="0.0427" y="-2" relative="1" as="geometry">
            <mxPoint as="offset" />
          </mxGeometry>
        </mxCell>
        <mxCell id="mHFgFETIg7N2WqQJ-qOk-47" value="" style="strokeColor=inherit;fillColor=inherit;gradientColor=inherit;edgeStyle=none;html=1;endArrow=open;rounded=0;entryX=0;entryY=0.75;entryDx=0;entryDy=0;movable=0;resizable=0;rotatable=0;deletable=0;editable=0;locked=1;connectable=0;" parent="1" edge="1">
          <mxGeometry relative="1" as="geometry">
            <mxPoint x="502" y="42" as="sourcePoint" />
            <mxPoint x="502" y="-50" as="targetPoint" />
            <Array as="points">
              <mxPoint x="487" y="42" />
              <mxPoint x="487" y="18" />
              <mxPoint x="487" y="-12" />
              <mxPoint x="487" y="-40" />
              <mxPoint x="487" y="-50" />
            </Array>
          </mxGeometry>
        </mxCell>
        <mxCell id="mHFgFETIg7N2WqQJ-qOk-60" value="unbook" style="edgeLabel;html=1;align=center;verticalAlign=middle;resizable=0;points=[];fontSize=11;fontFamily=Helvetica;fontColor=default;" parent="mHFgFETIg7N2WqQJ-qOk-47" vertex="1" connectable="0">
          <mxGeometry x="0.041" y="1" relative="1" as="geometry">
            <mxPoint x="1" as="offset" />
          </mxGeometry>
        </mxCell>
        <mxCell id="mHFgFETIg7N2WqQJ-qOk-49" value="" style="strokeColor=inherit;fillColor=inherit;gradientColor=inherit;edgeStyle=none;html=1;endArrow=open;rounded=0;entryX=1;entryY=0.5;entryDx=0;entryDy=0;exitX=1;exitY=0.25;exitDx=0;exitDy=0;jumpStyle=line;movable=0;resizable=0;rotatable=0;deletable=0;editable=0;locked=1;connectable=0;" parent="1" edge="1">
          <mxGeometry relative="1" as="geometry">
            <mxPoint x="600" y="-68" as="sourcePoint" />
            <mxPoint x="604" y="174" as="targetPoint" />
            <Array as="points">
              <mxPoint x="660" y="-68" />
              <mxPoint x="660" y="174" />
            </Array>
          </mxGeometry>
        </mxCell>
        <mxCell id="mHFgFETIg7N2WqQJ-qOk-54" value="buy" style="edgeLabel;html=1;align=center;verticalAlign=middle;resizable=0;points=[];fontSize=11;fontFamily=Helvetica;fontColor=default;" parent="mHFgFETIg7N2WqQJ-qOk-49" vertex="1" connectable="0">
          <mxGeometry x="-0.0363" relative="1" as="geometry">
            <mxPoint as="offset" />
          </mxGeometry>
        </mxCell>
        <mxCell id="mHFgFETIg7N2WqQJ-qOk-66" value="" style="strokeColor=inherit;fillColor=inherit;gradientColor=inherit;edgeStyle=none;html=1;endArrow=open;rounded=0;entryX=1;entryY=0.5;entryDx=0;entryDy=0;exitX=1;exitY=0.25;exitDx=0;exitDy=0;jumpStyle=line;movable=1;resizable=1;rotatable=1;deletable=1;editable=1;locked=0;connectable=1;" parent="1" edge="1">
          <mxGeometry relative="1" as="geometry">
            <mxPoint x="504" y="175" as="sourcePoint" />
            <mxPoint x="500" y="-67" as="targetPoint" />
            <Array as="points">
              <mxPoint x="444" y="175" />
              <mxPoint x="444" y="-67" />
            </Array>
          </mxGeometry>
        </mxCell>
        <mxCell id="mHFgFETIg7N2WqQJ-qOk-67" value="return" style="edgeLabel;html=1;align=center;verticalAlign=middle;resizable=0;points=[];fontSize=11;fontFamily=Helvetica;fontColor=default;" parent="mHFgFETIg7N2WqQJ-qOk-66" vertex="1" connectable="0">
          <mxGeometry x="-0.0363" relative="1" as="geometry">
            <mxPoint as="offset" />
          </mxGeometry>
        </mxCell>
      </root>
    </mxGraphModel>
  </diagram>
</mxfile>
